<svg xmlns="http://www.w3.org/2000/svg" viewBox="0 0 160.6 35.52"><defs><style>.cls-1{fill:#db931e;}.cls-2{fill:#009245;}</style></defs><g id="Layer_2" data-name="Layer 2"><g id="sketch"><path class="cls-1" d="M16.57,28c-2.84,0-5.67,0-8.51,0-4.45,0-8-4.19-8-9.55,0-2.47,0-4.93,0-7.4C.08,5.84,3.6,1.62,7.88,1.53c1.18,0,2.36,0,3.54,0A4,4,0,0,1,15.12,4c.56,1.09,1.13,2.18,1.65,3.3a2.56,2.56,0,0,0,2.55,1.72c5.58,0,11.17.1,16.76-.05,5-.13,8.71,4.61,8.51,10.24-.08,2.19,0,4.39,0,6.59,0,5.46-3.47,9.62-8,9.68q-1.72,0-3.45,0A4,4,0,0,1,29.45,33c-.58-1.16-1.17-2.31-1.74-3.47A2.42,2.42,0,0,0,25.41,28C22.46,28,19.51,28,16.57,28Zm-2-7.65c2,0,4.1,0,6.15,0A4.2,4.2,0,0,1,24.65,23c.54,1.11,1.11,2.19,1.64,3.3a2.44,2.44,0,0,0,2.35,1.61c2.47,0,5,0,7.42,0,1.44,0,2.08-.79,2.08-2.57q0-2.94,0-5.88c0-2-.57-2.72-2.29-2.72H24a4.13,4.13,0,0,1-3.9-2.64c-.57-1.17-1.16-2.32-1.73-3.48a2.34,2.34,0,0,0-2.18-1.45c-2.55,0-5.11,0-7.66,0-1.35,0-2,.82-2,2.43,0,2.06,0,4.12,0,6.18,0,1.82.59,2.54,2.08,2.54C10.56,20.32,12.58,20.31,14.6,20.31Z"/><path class="cls-2" d="M94.47,21.61h-15a.61.61,0,0,0-.53.9,8.48,8.48,0,0,0,1.35,1.83,8.33,8.33,0,0,0,2.87,2.1,8.13,8.13,0,0,0,3.36.7A8,8,0,0,0,90.66,26a.58.58,0,0,1,.54,0l6.62,2.89a.61.61,0,0,1,.22.95,15.43,15.43,0,0,1-4.8,3.74,14.88,14.88,0,0,1-6.77,1.57,14.7,14.7,0,0,1-6.29-1.37A16,16,0,0,1,75.05,30a17.68,17.68,0,0,1-3.45-5.6,18.38,18.38,0,0,1-1.26-6.8,18.56,18.56,0,0,1,1.26-6.87,17.72,17.72,0,0,1,3.45-5.61,16,16,0,0,1,5.13-3.76,15.12,15.12,0,0,1,12.58,0,16.05,16.05,0,0,1,5.12,3.76,17.93,17.93,0,0,1,3.46,5.61,18.76,18.76,0,0,1,1.25,6.87,17.88,17.88,0,0,1-.33,3.51.6.6,0,0,1-.6.49ZM86.47,8a8.4,8.4,0,0,0-6.23,2.8,9.14,9.14,0,0,0-1.35,1.9.61.61,0,0,0,.53.91H93.51A.61.61,0,0,0,94,12.7a9.14,9.14,0,0,0-1.35-1.9A8.14,8.14,0,0,0,86.47,8Z"/><path class="cls-2" d="M121.33,0a11.92,11.92,0,0,1,5.44,1.23A12.72,12.72,0,0,1,131,4.63a16,16,0,0,1,2.69,5,19.5,19.5,0,0,1,1,6.14V33.67a.61.61,0,0,1-.61.61h-6.12a.6.6,0,0,1-.6-.61V15.81a7.65,7.65,0,0,0-2.14-5.54,6.55,6.55,0,0,0-5-2.27A6.64,6.64,0,0,0,115,10.27,7.92,7.92,0,0,0,113,15.81V33.67a.61.61,0,0,1-.61.61h-6.11a.61.61,0,0,1-.61-.61V1.54a.61.61,0,0,1,.61-.61h6.11a.61.61,0,0,1,.61.61v.63a.6.6,0,0,0,1,.47A14.41,14.41,0,0,1,116.69,1,10.8,10.8,0,0,1,121.33,0Z"/><path class="cls-2" d="M150.16,13.61a21.42,21.42,0,0,1,2.44.93,18.9,18.9,0,0,1,3.51,2,13.49,13.49,0,0,1,3.15,3.24,7.89,7.89,0,0,1,1.34,4.6,12.62,12.62,0,0,1-.7,4.27,10,10,0,0,1-2.05,3.4,9.18,9.18,0,0,1-3.3,2.27,11.56,11.56,0,0,1-4.39.8,16.46,16.46,0,0,1-6.94-1.47,16.18,16.18,0,0,1-4.76-3.19.62.62,0,0,1,0-.84l4.21-4.59a.62.62,0,0,1,.92,0,6.82,6.82,0,0,0,2.94,2.12,9.92,9.92,0,0,0,3,.6,4.18,4.18,0,0,0,2.8-.8,2.45,2.45,0,0,0,.92-1.93,1.88,1.88,0,0,0-.61-1.4,5.29,5.29,0,0,0-1.44-1,9.72,9.72,0,0,0-1.67-.64c-.58-.15-1-.3-1.41-.43l-2.47-.94a15.93,15.93,0,0,1-3.54-1.93,12.62,12.62,0,0,1-3.15-3.2,8,8,0,0,1-1.34-4.67A12,12,0,0,1,138.52,6a9.79,9.79,0,0,1,2.35-3.37,9.35,9.35,0,0,1,3.36-2,12.31,12.31,0,0,1,3.91-.63,15.12,15.12,0,0,1,5.28.8A17.34,17.34,0,0,1,157,2.6a13,13,0,0,1,2.34,2.12.61.61,0,0,1,0,.81L155,10.2a.61.61,0,0,1-.93,0,7.51,7.51,0,0,0-2.24-2,6.47,6.47,0,0,0-3.12-.8,5.38,5.38,0,0,0-2.53.67A2.2,2.2,0,0,0,145,9.6a2.41,2.41,0,0,0,.9,2.35,4.75,4.75,0,0,0,.93.55,12.43,12.43,0,0,0,1.68.64Z"/><path class="cls-2" d="M62.87,1.56c1.26,0,2.52,0,3.78,0s1.46.72.89,2.1c-1.73,4.23-3.49,8.43-5.25,12.63q-2.76,6.62-5.55,13.21c-.5,1.2-.84,1.22-1.35,0-1.36-3.25-2.72-6.51-4-9.8a6.91,6.91,0,0,1,0-5.23q2.07-5.11,4.18-10.18a3.93,3.93,0,0,1,3.52-2.72c1.25-.09,2.52,0,3.78,0Z"/><path class="cls-2" d="M64.36,35c-1.83,0-3.66,0-5.49,0-1.52,0-1.92-.64-1.2-2,1.87-3.63,3.78-7.22,5.73-10.8.68-1.25,1.81-1.26,2.5,0,1.94,3.55,3.82,7.13,5.68,10.72.64,1.25.15,2.09-1.2,2.12C68.37,35.05,66.36,35,64.36,35Z"/></g></g></svg>